<?xml version="1.0" standalone="no"?>
<!DOCTYPE svg PUBLIC "-//W3C//DTD SVG 20010904//EN"
 "http://www.w3.org/TR/2001/REC-SVG-20010904/DTD/svg10.dtd">
<svg version="1.0" xmlns="http://www.w3.org/2000/svg"
 width="616.000000pt" height="787.000000pt" viewBox="0 0 616.000000 787.000000"
 preserveAspectRatio="xMidYMid meet">
<style>
    * {
      background-color: #e1dff0 ;
    }
</style>
<g transform="translate(0.000000,787.000000) scale(0.100000,-0.100000)"
fill="#64228f" stroke="none">
<path d="M3300 7789 c0 -23 51 -102 80 -122 16 -11 21 -34 31 -170 l12 -156
-48 -48 c-126 -128 -246 -376 -262 -541 -5 -57 -3 -68 30 -135 21 -41 69 -110
113 -160 42 -48 75 -89 73 -91 -2 -2 -24 -13 -47 -25 -64 -32 -128 -96 -157
-155 -28 -59 -47 -170 -38 -233 3 -24 0 -70 -7 -103 l-13 -59 -49 25 c-27 14
-63 38 -79 54 -33 31 -80 42 -259 60 -148 15 -147 15 -171 63 -20 39 -21 46
-10 117 10 59 10 86 0 125 -28 114 -84 185 -179 229 -190 87 -403 -9 -455
-205 -20 -74 -19 -125 5 -202 25 -80 90 -156 164 -194 28 -14 52 -26 53 -28 2
-1 -4 -23 -13 -48 -10 -30 -29 -58 -52 -77 l-36 -30 -31 29 c-106 98 -223 121
-360 70 -73 -27 -120 -70 -157 -146 -29 -59 -33 -77 -32 -144 1 -142 80 -255
207 -298 34 -12 85 -21 114 -21 56 0 143 28 174 56 15 14 30 16 77 11 44 -5
71 -2 108 12 27 11 86 29 131 41 l81 23 109 -62 c89 -51 118 -63 168 -67 33
-4 80 -16 105 -28 36 -17 64 -21 135 -21 107 0 160 21 227 89 l41 43 35 -70
c19 -39 55 -90 78 -114 36 -36 50 -43 82 -43 38 0 38 0 173 -187 74 -102 142
-207 152 -232 44 -110 30 -250 -35 -347 -28 -41 -41 -50 -88 -64 -198 -59
-375 -214 -575 -504 l-68 -98 -66 7 c-158 15 -329 84 -447 180 -148 120 -394
438 -584 755 -154 258 -354 483 -560 632 -186 134 -267 163 -450 162 -108 -1
-136 -4 -205 -28 -240 -81 -394 -300 -436 -621 -22 -171 0 -456 57 -715 120
-543 508 -1245 958 -1735 183 -199 360 -305 508 -305 55 0 158 37 191 68 91
86 99 252 21 445 -74 185 -298 425 -554 596 -250 168 -496 371 -577 478 -163
217 -269 536 -280 851 -9 236 19 366 99 456 108 124 236 119 403 -14 195 -155
329 -382 450 -760 97 -305 337 -826 482 -1050 171 -262 401 -482 682 -652
l104 -63 -6 -180 c-11 -315 -35 -402 -193 -717 -186 -371 -389 -624 -598 -743
-48 -27 -112 -72 -143 -99 l-56 -50 5 -88 c5 -73 11 -100 38 -154 50 -103 112
-131 339 -154 119 -12 187 -8 233 16 25 13 32 12 65 -5 65 -32 140 -43 278
-39 145 3 181 15 243 76 45 45 91 145 105 227 12 72 6 117 -33 220 -27 74 -35
181 -18 260 12 56 15 60 47 66 53 11 83 40 125 122 33 65 40 88 44 155 5 95
-9 144 -50 175 -28 21 -29 24 -23 75 19 150 146 396 318 613 l60 76 98 7 c182
12 409 66 564 136 l64 29 5 -27 c18 -89 26 -171 26 -278 0 -189 -28 -261 -150
-389 -105 -109 -122 -171 -74 -260 9 -16 29 -55 45 -86 27 -56 59 -86 149
-143 191 -122 472 -403 702 -704 55 -72 81 -87 185 -109 65 -13 114 -15 288
-9 116 4 239 11 274 15 75 9 93 26 118 113 13 47 23 62 54 82 23 16 41 38 49
61 10 31 8 45 -18 118 -17 45 -45 109 -64 142 l-34 60 -220 5 -220 5 -67 33
c-187 93 -456 351 -542 521 -97 193 -90 315 32 556 56 112 109 186 213 301 45
49 107 126 137 172 146 219 219 505 194 760 -25 244 -101 438 -246 628 -70 91
-249 263 -348 334 l-77 55 -46 110 c-94 221 -159 448 -152 534 l3 39 210 -127
c305 -183 372 -233 414 -309 19 -34 95 -130 169 -214 139 -158 203 -238 239
-298 l22 -35 -25 -40 c-14 -22 -41 -70 -60 -107 -32 -64 -34 -73 -34 -172 0
-69 -5 -115 -15 -139 -8 -20 -15 -52 -15 -70 0 -112 174 -190 274 -122 l36 24
0 -35 c0 -46 22 -87 63 -118 29 -22 44 -26 103 -26 114 0 162 42 172 152 7 81
32 118 79 118 24 0 44 10 70 33 31 29 37 41 41 90 4 54 3 58 -31 92 -19 19
-38 46 -41 60 -4 14 -90 116 -192 227 -103 112 -206 226 -229 253 -72 85 -235
315 -335 472 -93 149 -95 150 -141 162 -214 55 -569 344 -615 500 -9 31 -32
90 -52 131 -24 51 -35 87 -33 111 2 34 -1 38 -111 120 -178 134 -177 133 -266
126 -43 -4 -98 -9 -123 -13 l-46 -6 -6 56 c-3 31 -3 72 0 91 l5 34 97 -48 c53
-27 114 -54 135 -61 48 -15 130 -8 209 19 121 42 144 80 132 217 -8 99 -9 97
124 242 118 129 131 148 131 200 0 35 -11 63 -53 135 -30 51 -75 132 -101 180
-55 102 -54 57 -14 420 19 174 20 202 7 221 -25 41 -168 166 -189 166 -18 0
-20 -7 -20 -66 0 -55 -5 -76 -30 -123 -17 -31 -48 -76 -69 -100 l-37 -44 -100
35 c-61 22 -138 40 -203 48 -56 8 -108 19 -115 25 -6 7 -35 75 -65 152 -48
129 -55 142 -89 161 -58 32 -152 52 -246 52 -80 0 -86 -1 -86 -21z m262 -19
c35 -11 71 -25 79 -32 14 -11 97 -219 174 -433 19 -51 35 -78 35 -58 0 7 -13
48 -30 92 -20 54 -25 81 -17 81 94 -1 339 -65 415 -110 39 -23 58 -18 24 6
l-22 15 44 57 c71 94 95 148 89 210 -5 43 -3 52 11 52 19 0 156 -122 174 -156
10 -20 9 -51 -7 -181 -11 -87 -23 -196 -27 -242 l-7 -83 -42 80 c-45 86 -104
165 -137 183 -11 6 5 -20 36 -57 37 -45 82 -120 130 -219 41 -82 106 -206 145
-275 39 -69 71 -135 71 -147 0 -42 -21 -75 -98 -156 -42 -45 -94 -102 -115
-127 -32 -38 -36 -41 -27 -17 8 22 7 28 -2 25 -23 -8 -32 -78 -19 -156 7 -40
9 -87 6 -105 -13 -61 -73 -104 -177 -127 l-56 -13 -32 36 c-36 42 -110 80
-142 74 -22 -3 -22 -4 -3 -11 69 -26 97 -42 121 -67 15 -16 25 -31 23 -34 -12
-11 -133 40 -273 115 -82 44 -150 80 -152 80 -2 0 -4 -4 -4 -9 0 -5 25 -21 55
-37 l55 -29 0 -95 c0 -93 13 -170 29 -170 4 0 6 13 3 29 l-4 28 116 13 c112
12 116 12 153 -10 60 -35 263 -192 263 -203 0 -17 -62 -147 -71 -147 -4 0 -10
18 -14 40 -4 22 -11 43 -17 46 -28 18 26 -157 82 -264 33 -63 37 -78 29 -106
-11 -39 -63 -114 -85 -123 -8 -3 -41 4 -72 16 -82 32 -92 35 -92 23 0 -5 33
-22 74 -37 l73 -27 6 -86 c11 -160 102 -445 217 -674 l58 -117 -36 25 c-92 63
-188 64 -257 2 -72 -62 -145 -236 -188 -442 l-23 -109 -13 74 c-17 100 -73
266 -118 352 -46 87 -120 169 -179 198 -39 18 -56 21 -110 15 -36 -4 -78 -9
-94 -13 l-30 -6 34 56 c55 92 66 197 34 322 -6 25 -73 127 -183 280 -247 343
-319 460 -295 475 45 28 145 17 193 -20 27 -22 37 -25 37 -12 0 5 -23 21 -51
37 -47 25 -58 27 -124 22 l-71 -5 0 61 c1 157 -101 282 -259 315 -28 6 -69 8
-93 5 -38 -5 -49 -1 -95 30 -58 40 -144 124 -135 132 7 7 261 -22 313 -36 22
-6 56 -23 75 -39 54 -42 129 -77 218 -99 92 -24 92 -24 92 -12 0 4 -27 14 -61
21 -66 14 -66 20 3 43 58 19 91 11 169 -42 72 -50 98 -101 144 -288 20 -84 41
-153 46 -153 5 0 9 3 9 8 -1 28 -82 317 -99 350 -33 65 -156 152 -214 152 -13
0 -50 -9 -82 -20 -74 -25 -75 -25 -75 6 0 38 16 63 83 126 66 64 96 74 182 64
106 -12 157 -41 253 -140 74 -77 108 -103 217 -166 145 -84 163 -92 122 -57
l-29 24 42 33 c22 18 39 35 36 37 -3 3 -24 -10 -47 -28 l-42 -33 -41 23 c-231
130 -240 140 -242 256 -2 75 -18 145 -30 132 -3 -3 -1 -29 5 -57 13 -61 14
-130 2 -130 -21 0 -41 52 -41 104 0 96 -27 146 -177 325 -243 289 -269 335
-252 445 27 167 158 421 268 520 21 19 21 19 21 -2 0 -12 5 -22 11 -22 11 0 7
115 -12 300 -8 81 -13 98 -33 115 -26 22 -76 92 -76 107 0 16 182 0 252 -22z
m-1269 -1310 c73 -27 130 -79 164 -148 24 -48 28 -69 28 -137 -1 -100 -15
-147 -63 -210 -55 -73 -131 -109 -238 -113 -73 -4 -88 -1 -136 23 -68 34 -113
77 -145 139 -92 181 -4 398 187 457 49 15 148 9 203 -11z m1110 -179 c31 -38
57 -74 57 -79 0 -5 -11 -14 -24 -20 -44 -20 -93 -71 -110 -116 -16 -41 -19
-44 -61 -48 -37 -5 -52 -14 -95 -58 -47 -48 -53 -52 -62 -35 -6 10 -8 53 -5
102 8 141 74 245 191 303 22 11 43 20 47 20 3 0 31 -31 62 -69z m113 -151 c25
-50 42 -146 27 -161 -5 -5 -25 0 -50 12 -23 11 -69 26 -102 32 -34 6 -61 15
-61 20 0 16 38 82 56 98 28 25 77 49 93 46 8 -1 25 -22 37 -47z m-1010 -162
c26 -58 79 -120 147 -172 l57 -44 -45 -23 c-54 -27 -120 -95 -141 -145 -52
-123 -30 -268 54 -356 l26 -28 -42 0 c-30 0 -56 9 -94 34 -107 68 -271 137
-287 120 -8 -7 20 -24 42 -24 40 0 10 -17 -86 -48 -89 -28 -187 -42 -187 -27
0 3 14 24 30 47 62 86 76 219 34 318 l-20 43 47 47 c31 31 48 58 53 83 l7 37
69 0 c45 0 88 7 124 21 58 21 142 89 165 133 8 14 17 26 21 26 4 0 15 -19 26
-42z m-641 -210 c59 -31 94 -66 126 -128 20 -38 24 -60 24 -140 0 -88 -2 -99
-31 -150 -39 -69 -108 -123 -187 -145 -68 -19 -108 -16 -191 16 -177 66 -242
299 -129 462 27 39 86 79 151 104 58 21 176 12 237 -19z m1089 -43 c105 -50
161 -143 160 -265 -3 -222 -210 -362 -416 -281 -97 38 -157 113 -181 227 -22
104 31 235 120 297 88 62 214 71 317 22z m1541 -376 c44 -129 166 -256 390
-405 75 -51 140 -85 196 -104 l84 -29 86 -134 c192 -298 311 -450 568 -730
214 -233 215 -235 164 -316 l-28 -42 -7 28 c-4 15 -11 48 -16 73 l-10 45 0
-40 c-1 -22 5 -78 12 -125 16 -99 7 -129 -50 -180 -40 -35 -45 -35 -106 -14
-60 20 -79 43 -85 101 -6 66 -21 100 -53 123 -55 39 -98 24 -134 -47 -12 -24
-24 -33 -55 -38 -47 -8 -123 21 -140 53 -6 12 -11 60 -11 109 l0 88 60 105
c42 72 59 111 56 126 -9 35 -110 166 -259 333 -74 85 -147 178 -162 207 -43
86 -112 138 -427 326 -164 97 -218 134 -218 149 0 10 4 19 8 19 15 0 74 91 87
133 11 39 10 43 -36 131 -27 50 -49 98 -49 107 0 9 12 43 26 75 l26 59 29 -55
c15 -30 40 -89 54 -131z m-1355 -28 c6 -16 45 -80 86 -142 40 -62 72 -114 70
-116 -2 -2 -16 -1 -31 3 -40 10 -95 71 -132 147 -33 65 -39 91 -27 121 9 24
20 19 34 -13z m-2200 -16 c95 -34 159 -70 253 -143 212 -162 358 -331 530
-611 158 -259 374 -548 511 -686 39 -39 104 -93 145 -120 118 -78 288 -134
404 -135 26 0 47 -2 47 -4 0 -2 -18 -41 -40 -88 -45 -97 -102 -286 -120 -400
-15 -90 3 -87 -170 -31 -212 68 -413 185 -554 321 -122 119 -177 202 -361 547
-27 50 -94 173 -150 275 -56 102 -130 239 -165 305 -123 234 -260 367 -468
457 -69 29 -87 33 -172 33 -82 0 -103 -4 -150 -26 -105 -49 -165 -126 -206
-264 -28 -93 -24 -270 9 -406 38 -156 117 -342 202 -474 17 -27 53 -92 80
-144 58 -112 143 -229 211 -291 118 -106 339 -276 533 -409 134 -92 302 -250
389 -366 141 -187 199 -420 138 -550 -13 -27 -32 -58 -43 -68 -20 -17 -21 -17
-27 13 -16 82 -119 176 -378 347 -467 308 -900 762 -1064 1119 -53 113 -138
378 -168 520 -59 279 -75 562 -42 738 53 281 196 472 403 540 112 36 107 35
233 32 96 -3 128 -8 190 -31z m3761 -1151 c446 -370 609 -859 453 -1353 -54
-168 -136 -304 -274 -456 -94 -103 -177 -219 -225 -314 -40 -80 -95 -256 -95
-304 1 -116 65 -269 168 -397 118 -148 328 -325 462 -389 l75 -36 160 -1 c88
0 183 -1 211 -2 l51 -2 32 -59 c42 -80 81 -185 81 -220 0 -30 -53 -95 -72 -89
-5 2 -18 27 -28 57 -30 89 -47 105 -121 113 -73 8 -249 -1 -249 -13 0 -4 44
-5 98 -2 54 3 124 3 156 -1 56 -7 57 -8 83 -59 39 -74 40 -176 2 -233 l-26
-40 -239 -12 c-251 -13 -351 -8 -447 24 -49 16 -52 19 -177 177 -180 226 -401
451 -551 562 l-61 45 51 0 c63 0 96 16 143 68 77 85 67 202 -24 289 -46 44
-96 63 -171 63 -53 0 -71 -5 -110 -29 -51 -33 -87 -91 -87 -143 l-1 -33 -14
25 c-19 33 -19 114 -1 148 8 15 44 56 80 90 83 81 133 177 149 286 10 71 1
249 -19 387 -6 35 -5 35 73 82 367 216 582 503 637 849 46 283 -4 491 -198
827 -41 71 -82 144 -91 162 l-18 33 29 -19 c16 -10 63 -47 105 -81z m-889 57
c123 -78 233 -316 274 -593 12 -85 15 -156 11 -283 -7 -278 -52 -424 -179
-592 -29 -39 -161 -189 -293 -334 -273 -299 -299 -330 -406 -492 -132 -201
-183 -315 -197 -438 -7 -62 -8 -63 -42 -70 -48 -10 -111 -80 -139 -154 -45
-119 -37 -237 19 -293 26 -26 28 -32 20 -68 -23 -97 -8 -239 35 -339 13 -31
16 -58 12 -120 -6 -101 -36 -181 -94 -245 -64 -71 -108 -85 -268 -85 -145 1
-226 18 -262 57 -37 40 -75 136 -81 204 l-5 65 73 74 c49 51 70 80 66 91 -3 8
5 35 19 58 25 42 34 80 16 61 -15 -16 -71 -128 -71 -144 0 -7 -28 -40 -61 -72
l-62 -59 6 -65 c5 -54 22 -108 64 -203 3 -7 -10 -18 -33 -28 -50 -21 -249 -13
-373 15 -77 17 -89 23 -127 63 -47 50 -70 110 -80 215 -7 61 -6 65 22 95 30
32 134 104 219 153 64 36 190 157 271 261 103 132 210 307 305 499 159 323
169 377 169 920 0 389 7 510 41 715 54 323 162 556 376 811 201 240 393 342
654 348 45 1 63 -4 101 -28z m716 -42 c34 -17 77 -48 95 -70 71 -82 199 -362
233 -506 15 -65 22 -293 9 -313 -3 -5 -20 6 -37 26 -51 58 -100 77 -183 72
-63 -4 -84 -11 -161 -53 -91 -50 -275 -167 -353 -226 -35 -26 -42 -29 -38 -13
17 55 27 197 27 344 -1 129 3 188 19 271 49 247 145 446 236 485 47 21 87 16
153 -17z m1530 -512 c48 -51 33 -139 -30 -177 -51 -31 -64 -27 -66 21 -1 22
-4 45 -7 49 -3 5 10 30 30 55 19 26 35 53 35 61 0 20 13 17 38 -9z m-438 -64
c62 -42 67 -87 15 -121 -33 -21 -36 -21 -41 -5 -6 21 -25 59 -44 90 -11 18
-12 24 -1 37 17 21 40 20 71 -1z m-60 -83 c11 -21 20 -53 20 -69 0 -54 -76
-121 -137 -121 -39 0 -127 43 -147 71 -18 26 -21 84 -6 124 l10 26 40 -21 c58
-30 160 -25 175 8 14 31 22 28 45 -18z m120 -77 c0 -28 56 -67 118 -83 36 -9
48 -9 68 5 l24 15 0 -43 c0 -92 -71 -145 -177 -132 -128 16 -175 162 -81 254
34 33 48 28 48 -16z m-1385 -1912 c43 -25 92 -94 100 -139 13 -79 -29 -163
-99 -196 -45 -21 -131 -20 -181 3 -47 22 -99 74 -114 114 -15 39 -14 111 3
151 39 94 187 128 291 67z m-1241 -147 c38 -39 51 -95 38 -176 -32 -212 -188
-325 -249 -180 -23 56 -14 172 21 247 31 67 48 90 91 116 41 26 68 24 99 -7z"/>
<path d="M3794 6741 c36 -37 37 -40 27 -77 -6 -22 -11 -79 -11 -128 0 -78 -2
-87 -15 -76 -9 7 -19 10 -23 6 -4 -4 4 -15 17 -25 32 -24 357 -221 365 -221
15 0 4 18 -18 28 -18 8 -26 23 -35 73 -17 85 -45 153 -89 214 -50 70 -222 245
-241 245 -10 0 -1 -14 23 -39z m90 -80 c37 -39 33 -75 -10 -79 -42 -4 -53 13
-42 66 5 23 13 42 17 42 4 0 20 -13 35 -29z m68 -78 c14 -12 18 -31 18 -77 0
-57 -15 -136 -26 -136 -10 0 -90 53 -101 68 -7 9 -13 27 -13 41 0 24 1 24 18
-9 33 -67 72 -28 72 73 0 61 4 66 32 40z m98 -151 c22 -59 43 -142 37 -149 -3
-2 -32 13 -66 34 -44 28 -59 42 -54 53 3 8 11 48 17 88 10 73 10 73 28 50 10
-13 27 -47 38 -76z"/>
<path d="M4180 6746 c0 -2 20 -46 44 -97 53 -112 86 -207 86 -248 0 -34 -15
-72 -43 -114 -22 -32 -15 -50 9 -21 21 27 54 102 54 124 0 51 -121 360 -141
360 -5 0 -9 -2 -9 -4z"/>
<path d="M3684 6038 c-13 -21 -18 -168 -5 -168 7 0 11 23 11 64 0 36 4 76 10
90 10 26 -2 37 -16 14z"/>
<path d="M4247 5960 c3 -11 9 -20 14 -20 11 0 11 3 3 24 -9 23 -23 20 -17 -4z"/>
<path d="M4325 5940 c-10 -11 -13 -20 -8 -20 13 0 38 29 31 35 -3 3 -13 -4
-23 -15z"/>
<path d="M4075 5403 c3 -23 21 -89 40 -147 41 -123 42 -135 15 -169 l-20 -25
-97 25 c-86 22 -111 24 -199 19 l-102 -6 -30 34 c-16 19 -32 40 -34 48 -3 7
-9 10 -13 6 -10 -10 25 -67 56 -90 23 -18 34 -18 113 -10 77 9 96 7 179 -14
51 -13 102 -24 114 -24 25 0 73 53 73 81 0 18 -72 251 -92 294 -6 14 -7 7 -3
-22z"/>
<a href="data:text/html,<script>alert(1337)</script>">OPEN IN NEW TAB</a>
</g>
</svg>
